<mxfile host="app.diagrams.net" agent="Mozilla/5.0 (Windows NT 10.0; Win64; x64) AppleWebKit/537.36 (KHTML, like Gecko) Chrome/131.0.0.0 Safari/537.36" version="25.0.3">
  <diagram name="Page-1" id="mKPKOX54xG1sVrPRqSOk">
    <mxGraphModel dx="1221" dy="658" grid="1" gridSize="10" guides="1" tooltips="1" connect="1" arrows="1" fold="1" page="1" pageScale="1" pageWidth="827" pageHeight="1169" math="0" shadow="0">
      <root>
        <mxCell id="0" />
        <mxCell id="1" parent="0" />
        <mxCell id="oXPiVWxlWM9DNFQVzROF-1" value="&lt;h2&gt;LEVEL 0 DIAGRAM&lt;/h2&gt;" style="text;html=1;align=center;verticalAlign=middle;whiteSpace=wrap;rounded=0;fontFamily=Lucida Console;" vertex="1" parent="1">
          <mxGeometry x="308" y="140" width="211" height="30" as="geometry" />
        </mxCell>
        <mxCell id="oXPiVWxlWM9DNFQVzROF-2" value="&lt;h1&gt;RIZZUME&lt;/h1&gt;" style="text;html=1;align=center;verticalAlign=middle;whiteSpace=wrap;rounded=0;fontFamily=Lucida Console;" vertex="1" parent="1">
          <mxGeometry x="308" y="30" width="211" height="30" as="geometry" />
        </mxCell>
        <mxCell id="oXPiVWxlWM9DNFQVzROF-3" value="&lt;h1&gt;DATA FLOW DIAGRAM&lt;/h1&gt;" style="text;html=1;align=center;verticalAlign=middle;whiteSpace=wrap;rounded=0;fontFamily=Lucida Console;" vertex="1" parent="1">
          <mxGeometry x="278" y="80" width="272" height="30" as="geometry" />
        </mxCell>
      </root>
    </mxGraphModel>
  </diagram>
</mxfile>
